<?xml version="1.0" encoding="utf-8"?>
<!-- Generator: Adobe Illustrator 22.0.1, SVG Export Plug-In . SVG Version: 6.00 Build 0)  -->
<svg version="1.1" id="Layer_1" xmlns="http://www.w3.org/2000/svg" xmlns:xlink="http://www.w3.org/1999/xlink" x="0px" y="0px"
	 viewBox="0 0 400 200" style="enable-background:new 0 0 400 200;" xml:space="preserve">
<style type="text/css">
	.st0{fill:#CCCCCC;}
</style>
<g>
	<rect x="1.5" y="1.5" class="st0" width="397" height="197"/>
	<path d="M397,3v194H3V3H397 M400,0H0v200h400V0L400,0z"/>
</g>
<g>
	<path d="M76.5,118.7c0,5.4,0.6,8.6,1.7,9.6c0.8,0.8,1.9,1.3,3.2,1.5c1.3,0.2,4.4,0.3,9,0.3h12.2c6.4,0,10.6-0.8,12.7-2.5
		c2.1-1.7,3.2-5.1,3.2-10.1c0-1.4,0-3-0.1-4.8c-0.2-3.5-0.3-5.7-0.3-6.4c0-4,1.6-6,4.8-6c3.9,0,5.8,1.8,5.8,5.5c0,1.1,0,2-0.1,2.6
		l-1,7c-0.3,2-0.4,4.1-0.4,6.4c0,1.3,0.1,3.2,0.3,5.7c0.2,2.5,0.3,4.4,0.3,5.7c0,4.1-2.3,6.2-7,6.2c-0.9,0-3-0.2-6.4-0.5
		c-2.2-0.2-5.6-0.3-10.2-0.5H93.9H71.8c-2.2,0-5.9,0.2-11.1,0.6c-0.7,0-2,0.1-3.8,0.2c-1.8,0.1-3.2,0.2-4.2,0.2
		c-3.9,0-5.8-1.7-5.8-5c0-2.9,1.4-4.4,4.3-4.4c0.7,0,1.8,0.1,3.3,0.4c1.5,0.3,2.6,0.4,3.3,0.4c4.7,0,7-3.5,7-10.4V65.1
		c0-6.8-2.3-10.2-7-10.2c-1.3,0-2.3,0.1-2.9,0.3c-1.5,0.3-2.7,0.4-3.7,0.4c-1.2,0-2.2-0.4-3-1.3c-0.8-0.9-1.2-2-1.2-3.2
		c0-3.2,2-4.8,5.9-4.8c0.6,0,1.2,0,2.1,0.1l7.3,0.8c4.1,0.5,7,0.7,9,0.7c2.4,0,5.3-0.2,8.8-0.7l6.4-0.8c0.7-0.1,1.3-0.1,1.8-0.1
		c4.1,0,6.2,1.6,6.2,4.8c0,1.3-0.4,2.4-1.2,3.2c-0.8,0.9-1.8,1.3-3,1.3c-0.9,0-2.2-0.1-3.7-0.4c-0.6-0.2-1.6-0.3-2.9-0.3
		c-4.7,0-7,3.4-7,10.2V118.7z"/>
	<path d="M169.3,141.3c-9.7,0-17.4-3.3-23.2-10c-5.8-6.7-8.7-15.6-8.7-26.9c0-11.2,2.9-20.2,8.8-26.9c5.8-6.7,13.7-10,23.6-10
		c10,0,18,3.3,23.8,9.8c5.8,6.5,8.7,15.4,8.7,26.7c0,11.2-3,20.3-9,27.1C187.2,137.9,179.3,141.3,169.3,141.3z M170,76.6
		c-6.4,0-11.5,2.3-15.2,6.8c-3.7,4.5-5.7,10.9-6.1,19.2v1.8c0,8.7,1.8,15.4,5.5,20.4c3.6,4.9,8.7,7.4,15.3,7.4
		c6.7,0,12-2.5,15.8-7.4c3.8-4.9,5.7-11.8,5.7-20.5C191,85.8,184,76.6,170,76.6z"/>
	<path d="M245.7,67.5c2.4,0,5.1,0.4,8.2,1.1c0.5-9,5.7-13.5,15.7-13.5c4.2,0,7.8,1.1,10.6,3.3c2.9,2.2,4.3,5,4.3,8.4
		c0,2.2-0.7,4.1-2.1,5.7c-1.4,1.6-3.1,2.3-5,2.3c-1.5,0-2.8-0.5-3.9-1.5c-1.1-1-1.7-2.2-1.7-3.6c0-1.5,1-3,3-4.6
		c-1.5-1.8-3.4-2.8-5.7-2.8c-4.9,0-7.4,3-7.5,9.1c7,4.7,10.5,11,10.5,18.9c0,6.4-2.4,11.7-7.2,15.9c-4.8,4.2-10.8,6.4-18,6.4
		c-5.1,0-10.3-1.2-15.8-3.6c-1.5-0.6-2.7-1-3.7-1c-1.3,0-2.4,0.6-3.5,1.7c-1,1.2-1.5,2.5-1.5,4.1c0,4.8,4.8,7.2,14.5,7.2h0.8
		c0.7,0,1.6,0,2.5,0c0.9,0,1.5,0,1.7,0c8.8,0,15.9,0.8,21.3,2.5c5.1,1.6,9.1,4,12,7.3c3,3.3,4.4,7,4.4,11.2c0,6.7-3.1,12-9.3,15.9
		c-6.2,3.9-14.6,5.9-25.2,5.9c-10.6,0-18.9-1.8-24.9-5.5c-6-3.7-9-8.8-9-15.2c0-7.5,4.2-12.8,12.6-15.9c-7.6-2.9-11.3-7.4-11.3-13.3
		c0-6.4,3.8-10.9,11.3-13.3c-2.4-3.2-3.6-7-3.6-11.3c0-6.3,2.4-11.5,7.3-15.6C232.4,69.6,238.4,67.5,245.7,67.5z M246.3,130.2
		c-7.4,0-13.2,1.1-17.4,3.3c-4.2,2.2-6.4,5.2-6.4,9c0,3.8,2.1,6.7,6.2,8.9c4.1,2.2,9.7,3.2,16.7,3.2c7.4,0,13.2-1.1,17.5-3.3
		c4.3-2.2,6.4-5.2,6.4-8.8c0-3.9-2-6.9-6.1-9C259.2,131.3,253.5,130.2,246.3,130.2z M246.1,76.6c-4.1,0-7.5,1.2-10.4,3.6
		c-2.9,2.4-4.4,5.4-4.7,9V90c0,4.1,1.4,7.3,4.1,9.8c2.8,2.5,6.4,3.7,10.8,3.7c4.6,0,8.4-1.2,11.3-3.7c2.9-2.5,4.4-5.7,4.4-9.5
		c0-4-1.5-7.2-4.4-9.8C254.2,77.9,250.6,76.6,246.1,76.6z"/>
	<path d="M320.2,141.3c-9.7,0-17.4-3.3-23.2-10c-5.8-6.7-8.7-15.6-8.7-26.9c0-11.2,2.9-20.2,8.8-26.9c5.8-6.7,13.7-10,23.6-10
		c10,0,18,3.3,23.8,9.8c5.8,6.5,8.7,15.4,8.7,26.7c0,11.2-3,20.3-9,27.1C338.1,137.9,330.1,141.3,320.2,141.3z M320.9,76.6
		c-6.4,0-11.5,2.3-15.2,6.8c-3.7,4.5-5.7,10.9-6.1,19.2v1.8c0,8.7,1.8,15.4,5.5,20.4c3.6,4.9,8.7,7.4,15.3,7.4
		c6.7,0,12-2.5,15.8-7.4c3.8-4.9,5.7-11.8,5.7-20.5C341.9,85.8,334.9,76.6,320.9,76.6z"/>
</g>
</svg>
